<mxfile host="app.diagrams.net" agent="Mozilla/5.0 (Macintosh; Intel Mac OS X 10.15; rv:131.0) Gecko/20100101 Firefox/131.0" version="24.7.17">
  <diagram name="Страница — 1" id="ggJMMAnoepDLcR61fNu9">
    <mxGraphModel dx="993" dy="586" grid="1" gridSize="10" guides="1" tooltips="1" connect="1" arrows="1" fold="1" page="1" pageScale="1" pageWidth="1169" pageHeight="827" math="0" shadow="0">
      <root>
        <mxCell id="0" />
        <mxCell id="1" parent="0" />
        <mxCell id="nrrABRd8VTDL2e9XV0RQ-1" value="" style="rounded=1;whiteSpace=wrap;html=1;" vertex="1" parent="1">
          <mxGeometry x="40" y="40" width="200" height="320" as="geometry" />
        </mxCell>
        <mxCell id="nrrABRd8VTDL2e9XV0RQ-2" value="Навигатор" style="text;html=1;align=center;verticalAlign=middle;whiteSpace=wrap;rounded=0;fontSize=14;fontStyle=1" vertex="1" parent="1">
          <mxGeometry x="100" y="52" width="80" height="30" as="geometry" />
        </mxCell>
        <mxCell id="nrrABRd8VTDL2e9XV0RQ-3" value="&lt;div align=&quot;center&quot;&gt;&lt;font color=&quot;#b3b3b3&quot;&gt;введите адрес&lt;/font&gt;&lt;/div&gt;" style="rounded=1;whiteSpace=wrap;html=1;align=center;" vertex="1" parent="1">
          <mxGeometry x="55" y="175" width="170" height="30" as="geometry" />
        </mxCell>
        <mxCell id="nrrABRd8VTDL2e9XV0RQ-6" value="" style="verticalLabelPosition=bottom;verticalAlign=top;html=1;shadow=0;dashed=0;strokeWidth=1;shape=mxgraph.android.keyboard;sketch=0;perimeter=rectanglePerimeter;" vertex="1" parent="1">
          <mxGeometry x="40" y="260" width="200" height="100" as="geometry" />
        </mxCell>
        <mxCell id="nrrABRd8VTDL2e9XV0RQ-12" value="" style="rounded=1;whiteSpace=wrap;html=1;" vertex="1" parent="1">
          <mxGeometry x="37.5" y="400" width="200" height="320" as="geometry" />
        </mxCell>
        <mxCell id="nrrABRd8VTDL2e9XV0RQ-13" value="Навигатор" style="text;html=1;align=center;verticalAlign=middle;whiteSpace=wrap;rounded=0;fontSize=14;fontStyle=1" vertex="1" parent="1">
          <mxGeometry x="97.5" y="412" width="80" height="30" as="geometry" />
        </mxCell>
        <mxCell id="nrrABRd8VTDL2e9XV0RQ-14" value="&lt;div&gt;&lt;font style=&quot;font-size: 18px;&quot; color=&quot;#ff3333&quot;&gt;Ошибка!&lt;/font&gt;&lt;/div&gt;&lt;div&gt;&lt;font style=&quot;font-size: 16px;&quot; color=&quot;#ff3333&quot;&gt;&lt;br&gt;&lt;/font&gt;&lt;/div&gt;&lt;div style=&quot;font-size: 15px;&quot;&gt;&lt;font style=&quot;font-size: 15px;&quot; color=&quot;#ff3333&quot;&gt;Подробное описание ошибки&lt;br&gt;&lt;/font&gt;&lt;/div&gt;" style="rounded=1;whiteSpace=wrap;html=1;align=center;" vertex="1" parent="1">
          <mxGeometry x="52.5" y="500" width="170" height="100" as="geometry" />
        </mxCell>
        <mxCell id="nrrABRd8VTDL2e9XV0RQ-16" value="&lt;div&gt;Назад&lt;/div&gt;" style="rounded=1;whiteSpace=wrap;html=1;align=center;" vertex="1" parent="1">
          <mxGeometry x="52.5" y="670" width="170" height="30" as="geometry" />
        </mxCell>
        <mxCell id="nrrABRd8VTDL2e9XV0RQ-62" style="edgeStyle=none;rounded=0;orthogonalLoop=1;jettySize=auto;html=1;exitX=1;exitY=0;exitDx=0;exitDy=0;entryX=0;entryY=0.5;entryDx=0;entryDy=0;elbow=vertical;" edge="1" parent="1" source="nrrABRd8VTDL2e9XV0RQ-17" target="nrrABRd8VTDL2e9XV0RQ-22">
          <mxGeometry relative="1" as="geometry" />
        </mxCell>
        <mxCell id="nrrABRd8VTDL2e9XV0RQ-17" value="" style="ellipse;whiteSpace=wrap;html=1;fillOpacity=0;strokeColor=#FF00FF;strokeWidth=6;" vertex="1" parent="1">
          <mxGeometry x="207" y="332" width="34" height="32" as="geometry" />
        </mxCell>
        <mxCell id="nrrABRd8VTDL2e9XV0RQ-22" value="" style="rounded=1;whiteSpace=wrap;html=1;" vertex="1" parent="1">
          <mxGeometry x="360" y="36" width="200" height="320" as="geometry" />
        </mxCell>
        <mxCell id="nrrABRd8VTDL2e9XV0RQ-23" value="Навигатор" style="text;html=1;align=center;verticalAlign=middle;whiteSpace=wrap;rounded=0;fontSize=14;fontStyle=1" vertex="1" parent="1">
          <mxGeometry x="420" y="48" width="80" height="30" as="geometry" />
        </mxCell>
        <mxCell id="nrrABRd8VTDL2e9XV0RQ-30" value="&lt;div&gt;Назад&lt;/div&gt;" style="rounded=1;whiteSpace=wrap;html=1;align=center;" vertex="1" parent="1">
          <mxGeometry x="375" y="307" width="170" height="30" as="geometry" />
        </mxCell>
        <mxCell id="nrrABRd8VTDL2e9XV0RQ-33" value="&lt;div&gt;На машине&lt;/div&gt;&lt;div&gt;42 мин&lt;/div&gt;" style="rounded=1;whiteSpace=wrap;html=1;" vertex="1" parent="1">
          <mxGeometry x="375" y="100" width="165" height="48" as="geometry" />
        </mxCell>
        <mxCell id="nrrABRd8VTDL2e9XV0RQ-58" style="edgeStyle=orthogonalEdgeStyle;rounded=0;orthogonalLoop=1;jettySize=auto;html=1;exitX=1;exitY=0.5;exitDx=0;exitDy=0;entryX=1.014;entryY=0.384;entryDx=0;entryDy=0;elbow=vertical;entryPerimeter=0;" edge="1" parent="1" source="nrrABRd8VTDL2e9XV0RQ-34" target="nrrABRd8VTDL2e9XV0RQ-51">
          <mxGeometry relative="1" as="geometry">
            <Array as="points">
              <mxPoint x="610" y="236" />
              <mxPoint x="610" y="523" />
            </Array>
          </mxGeometry>
        </mxCell>
        <mxCell id="nrrABRd8VTDL2e9XV0RQ-34" value="&lt;div&gt;Пешком&lt;/div&gt;&lt;div&gt;1 час 15 мин&lt;/div&gt;" style="rounded=1;whiteSpace=wrap;html=1;" vertex="1" parent="1">
          <mxGeometry x="375" y="212" width="165" height="48" as="geometry" />
        </mxCell>
        <mxCell id="nrrABRd8VTDL2e9XV0RQ-35" value="&lt;div&gt;На метро&lt;/div&gt;&lt;div&gt;55 мин&lt;/div&gt;" style="rounded=1;whiteSpace=wrap;html=1;" vertex="1" parent="1">
          <mxGeometry x="375" y="157" width="165" height="48" as="geometry" />
        </mxCell>
        <mxCell id="nrrABRd8VTDL2e9XV0RQ-40" value="" style="rounded=1;whiteSpace=wrap;html=1;" vertex="1" parent="1">
          <mxGeometry x="675" y="36" width="200" height="320" as="geometry" />
        </mxCell>
        <mxCell id="nrrABRd8VTDL2e9XV0RQ-41" value="Навигатор" style="text;html=1;align=center;verticalAlign=middle;whiteSpace=wrap;rounded=0;fontSize=14;fontStyle=1" vertex="1" parent="1">
          <mxGeometry x="740" y="42" width="80" height="30" as="geometry" />
        </mxCell>
        <mxCell id="nrrABRd8VTDL2e9XV0RQ-42" value="&lt;div&gt;Назад&lt;/div&gt;" style="rounded=1;whiteSpace=wrap;html=1;align=center;" vertex="1" parent="1">
          <mxGeometry x="695" y="301" width="170" height="30" as="geometry" />
        </mxCell>
        <mxCell id="nrrABRd8VTDL2e9XV0RQ-46" value="НА МАШИНЕ&lt;br&gt;&lt;div&gt;&lt;br&gt;&lt;/div&gt;&lt;div&gt;Карта с маршрутом от текущего положения пользователя до выбранного адреса&lt;/div&gt;&lt;div&gt;&lt;br&gt;&lt;/div&gt;&lt;div&gt;&lt;br&gt;&lt;/div&gt;&lt;div&gt;&lt;br&gt;&lt;/div&gt;" style="rounded=1;whiteSpace=wrap;html=1;" vertex="1" parent="1">
          <mxGeometry x="695" y="82" width="165" height="198" as="geometry" />
        </mxCell>
        <mxCell id="nrrABRd8VTDL2e9XV0RQ-47" value="" style="rounded=1;whiteSpace=wrap;html=1;" vertex="1" parent="1">
          <mxGeometry x="677.5" y="400" width="200" height="320" as="geometry" />
        </mxCell>
        <mxCell id="nrrABRd8VTDL2e9XV0RQ-48" value="Навигатор" style="text;html=1;align=center;verticalAlign=middle;whiteSpace=wrap;rounded=0;fontSize=14;fontStyle=1" vertex="1" parent="1">
          <mxGeometry x="737.5" y="412" width="80" height="30" as="geometry" />
        </mxCell>
        <mxCell id="nrrABRd8VTDL2e9XV0RQ-64" style="edgeStyle=none;rounded=0;orthogonalLoop=1;jettySize=auto;html=1;exitX=0;exitY=0.5;exitDx=0;exitDy=0;entryX=1;entryY=1;entryDx=0;entryDy=0;elbow=vertical;strokeColor=#3333FF;" edge="1" parent="1" source="nrrABRd8VTDL2e9XV0RQ-49" target="nrrABRd8VTDL2e9XV0RQ-22">
          <mxGeometry relative="1" as="geometry" />
        </mxCell>
        <mxCell id="nrrABRd8VTDL2e9XV0RQ-49" value="&lt;div&gt;Назад&lt;/div&gt;" style="rounded=1;whiteSpace=wrap;html=1;align=center;" vertex="1" parent="1">
          <mxGeometry x="692.5" y="671" width="170" height="30" as="geometry" />
        </mxCell>
        <mxCell id="nrrABRd8VTDL2e9XV0RQ-50" value="&lt;div&gt;НА МЕТРО&lt;/div&gt;&lt;div&gt;&lt;br&gt;&lt;/div&gt;&lt;div&gt;Карта с маршрутом от текущего положения пользователя до выбранного адреса&lt;/div&gt;&lt;div&gt;&lt;br&gt;&lt;/div&gt;&lt;div&gt;&lt;br&gt;&lt;/div&gt;&lt;div&gt;&lt;br&gt;&lt;/div&gt;" style="rounded=1;whiteSpace=wrap;html=1;" vertex="1" parent="1">
          <mxGeometry x="692.5" y="452" width="165" height="198" as="geometry" />
        </mxCell>
        <mxCell id="nrrABRd8VTDL2e9XV0RQ-51" value="" style="rounded=1;whiteSpace=wrap;html=1;" vertex="1" parent="1">
          <mxGeometry x="357.5" y="400" width="200" height="320" as="geometry" />
        </mxCell>
        <mxCell id="nrrABRd8VTDL2e9XV0RQ-52" value="Навигатор" style="text;html=1;align=center;verticalAlign=middle;whiteSpace=wrap;rounded=0;fontSize=14;fontStyle=1" vertex="1" parent="1">
          <mxGeometry x="417.5" y="412" width="80" height="30" as="geometry" />
        </mxCell>
        <mxCell id="nrrABRd8VTDL2e9XV0RQ-65" style="edgeStyle=orthogonalEdgeStyle;rounded=0;orthogonalLoop=1;jettySize=auto;html=1;exitX=1;exitY=0.5;exitDx=0;exitDy=0;entryX=1;entryY=0.75;entryDx=0;entryDy=0;elbow=vertical;strokeColor=#3333FF;" edge="1" parent="1" source="nrrABRd8VTDL2e9XV0RQ-53" target="nrrABRd8VTDL2e9XV0RQ-22">
          <mxGeometry relative="1" as="geometry">
            <Array as="points">
              <mxPoint x="600" y="686" />
              <mxPoint x="600" y="276" />
            </Array>
          </mxGeometry>
        </mxCell>
        <mxCell id="nrrABRd8VTDL2e9XV0RQ-53" value="&lt;div&gt;Назад&lt;/div&gt;" style="rounded=1;whiteSpace=wrap;html=1;align=center;" vertex="1" parent="1">
          <mxGeometry x="372.5" y="671" width="170" height="30" as="geometry" />
        </mxCell>
        <mxCell id="nrrABRd8VTDL2e9XV0RQ-54" value="&lt;div&gt;ПЕШКОМ&lt;br&gt;&lt;/div&gt;&lt;div&gt;&lt;br&gt;&lt;/div&gt;&lt;div&gt;Карта с маршрутом от текущего положения пользователя до выбранного адреса&lt;/div&gt;" style="rounded=1;whiteSpace=wrap;html=1;" vertex="1" parent="1">
          <mxGeometry x="372.5" y="452" width="165" height="198" as="geometry" />
        </mxCell>
        <mxCell id="nrrABRd8VTDL2e9XV0RQ-55" style="edgeStyle=orthogonalEdgeStyle;rounded=0;orthogonalLoop=1;jettySize=auto;html=1;exitX=1;exitY=0.5;exitDx=0;exitDy=0;elbow=vertical;" edge="1" parent="1" source="nrrABRd8VTDL2e9XV0RQ-33">
          <mxGeometry relative="1" as="geometry">
            <mxPoint x="680" y="124" as="targetPoint" />
          </mxGeometry>
        </mxCell>
        <mxCell id="nrrABRd8VTDL2e9XV0RQ-57" style="edgeStyle=orthogonalEdgeStyle;rounded=0;orthogonalLoop=1;jettySize=auto;html=1;exitX=1;exitY=0.5;exitDx=0;exitDy=0;entryX=0;entryY=0.25;entryDx=0;entryDy=0;elbow=vertical;" edge="1" parent="1" source="nrrABRd8VTDL2e9XV0RQ-35" target="nrrABRd8VTDL2e9XV0RQ-47">
          <mxGeometry relative="1" as="geometry">
            <Array as="points">
              <mxPoint x="640" y="181" />
              <mxPoint x="640" y="480" />
            </Array>
          </mxGeometry>
        </mxCell>
        <mxCell id="nrrABRd8VTDL2e9XV0RQ-60" style="edgeStyle=orthogonalEdgeStyle;rounded=0;orthogonalLoop=1;jettySize=auto;html=1;exitX=0;exitY=0.5;exitDx=0;exitDy=0;entryX=1.007;entryY=0.401;entryDx=0;entryDy=0;entryPerimeter=0;elbow=vertical;" edge="1" parent="1" source="nrrABRd8VTDL2e9XV0RQ-30" target="nrrABRd8VTDL2e9XV0RQ-1">
          <mxGeometry relative="1" as="geometry" />
        </mxCell>
        <mxCell id="nrrABRd8VTDL2e9XV0RQ-61" style="edgeStyle=none;rounded=0;orthogonalLoop=1;jettySize=auto;html=1;exitX=0.5;exitY=1;exitDx=0;exitDy=0;entryX=0.941;entryY=0.012;entryDx=0;entryDy=0;entryPerimeter=0;elbow=vertical;strokeColor=#FF3333;" edge="1" parent="1" source="nrrABRd8VTDL2e9XV0RQ-17" target="nrrABRd8VTDL2e9XV0RQ-12">
          <mxGeometry relative="1" as="geometry" />
        </mxCell>
        <mxCell id="nrrABRd8VTDL2e9XV0RQ-63" style="edgeStyle=none;rounded=0;orthogonalLoop=1;jettySize=auto;html=1;exitX=0;exitY=0.5;exitDx=0;exitDy=0;entryX=1.013;entryY=0.874;entryDx=0;entryDy=0;entryPerimeter=0;elbow=vertical;strokeColor=#3333FF;" edge="1" parent="1" source="nrrABRd8VTDL2e9XV0RQ-42" target="nrrABRd8VTDL2e9XV0RQ-22">
          <mxGeometry relative="1" as="geometry" />
        </mxCell>
        <mxCell id="nrrABRd8VTDL2e9XV0RQ-66" value="" style="rounded=1;whiteSpace=wrap;html=1;" vertex="1" parent="1">
          <mxGeometry x="695" y="230" width="165" height="50" as="geometry" />
        </mxCell>
        <mxCell id="nrrABRd8VTDL2e9XV0RQ-67" value="Выберите маршрут" style="text;html=1;align=center;verticalAlign=middle;whiteSpace=wrap;rounded=0;" vertex="1" parent="1">
          <mxGeometry x="717.5" y="230" width="120" height="20" as="geometry" />
        </mxCell>
        <mxCell id="nrrABRd8VTDL2e9XV0RQ-68" value="&lt;div style=&quot;font-size: 11px;&quot;&gt;&lt;font style=&quot;font-size: 11px;&quot;&gt;42 мин&lt;/font&gt;&lt;/div&gt;&lt;div style=&quot;font-size: 11px;&quot;&gt;&lt;font style=&quot;font-size: 11px;&quot;&gt;35 км&lt;br&gt;&lt;/font&gt;&lt;/div&gt;" style="rounded=1;whiteSpace=wrap;html=1;fillColor=#d5e8d4;strokeColor=#82b366;" vertex="1" parent="1">
          <mxGeometry x="695" y="250" width="55" height="30" as="geometry" />
        </mxCell>
        <mxCell id="nrrABRd8VTDL2e9XV0RQ-69" value="&lt;div style=&quot;font-size: 11px;&quot;&gt;&lt;font style=&quot;font-size: 11px;&quot;&gt;59 мин&lt;/font&gt;&lt;/div&gt;&lt;div style=&quot;font-size: 11px;&quot;&gt;&lt;font style=&quot;font-size: 11px;&quot;&gt;29 км&lt;br&gt;&lt;/font&gt;&lt;/div&gt;" style="rounded=1;whiteSpace=wrap;html=1;fillColor=#f5f5f5;strokeColor=#666666;fontColor=#333333;" vertex="1" parent="1">
          <mxGeometry x="805" y="250" width="55" height="30" as="geometry" />
        </mxCell>
        <mxCell id="nrrABRd8VTDL2e9XV0RQ-73" style="rounded=0;orthogonalLoop=1;jettySize=auto;html=1;exitX=1;exitY=0.5;exitDx=0;exitDy=0;elbow=vertical;" edge="1" parent="1" source="nrrABRd8VTDL2e9XV0RQ-69" target="nrrABRd8VTDL2e9XV0RQ-72">
          <mxGeometry relative="1" as="geometry" />
        </mxCell>
        <mxCell id="nrrABRd8VTDL2e9XV0RQ-70" value="&lt;div style=&quot;font-size: 11px;&quot;&gt;&lt;font style=&quot;font-size: 11px;&quot;&gt;52 мин&lt;/font&gt;&lt;/div&gt;&lt;div style=&quot;font-size: 11px;&quot;&gt;&lt;font style=&quot;font-size: 11px;&quot;&gt;38 км&lt;br&gt;&lt;/font&gt;&lt;/div&gt;" style="rounded=1;whiteSpace=wrap;html=1;fillColor=#f5f5f5;strokeColor=#666666;fontColor=#333333;" vertex="1" parent="1">
          <mxGeometry x="750" y="250" width="55" height="30" as="geometry" />
        </mxCell>
        <mxCell id="nrrABRd8VTDL2e9XV0RQ-87" style="edgeStyle=elbowEdgeStyle;rounded=0;orthogonalLoop=1;jettySize=auto;html=1;startArrow=classic;startFill=1;endArrow=none;endFill=0;exitX=0.537;exitY=1.012;exitDx=0;exitDy=0;exitPerimeter=0;" edge="1" parent="1" source="nrrABRd8VTDL2e9XV0RQ-72">
          <mxGeometry relative="1" as="geometry">
            <mxPoint x="1000" y="730" as="targetPoint" />
            <mxPoint x="1004" y="500" as="sourcePoint" />
          </mxGeometry>
        </mxCell>
        <mxCell id="nrrABRd8VTDL2e9XV0RQ-72" value="Карта с маршрутом отображается интерактивно в соответствии с выбранным маршрутом по нажатию на кнопку" style="text;html=1;align=center;verticalAlign=middle;whiteSpace=wrap;rounded=1;strokeColor=default;" vertex="1" parent="1">
          <mxGeometry x="920" y="350" width="150" height="125" as="geometry" />
        </mxCell>
        <mxCell id="nrrABRd8VTDL2e9XV0RQ-74" value="" style="rounded=1;whiteSpace=wrap;html=1;" vertex="1" parent="1">
          <mxGeometry x="692.5" y="600" width="165" height="50" as="geometry" />
        </mxCell>
        <mxCell id="nrrABRd8VTDL2e9XV0RQ-75" value="Выберите маршрут" style="text;html=1;align=center;verticalAlign=middle;whiteSpace=wrap;rounded=0;" vertex="1" parent="1">
          <mxGeometry x="715" y="600" width="120" height="20" as="geometry" />
        </mxCell>
        <mxCell id="nrrABRd8VTDL2e9XV0RQ-76" value="&lt;div style=&quot;font-size: 11px;&quot;&gt;&lt;font style=&quot;font-size: 11px;&quot;&gt;55 мин&lt;/font&gt;&lt;/div&gt;&lt;div style=&quot;font-size: 11px;&quot;&gt;&lt;font style=&quot;font-size: 11px;&quot;&gt;1 пересадка&lt;br&gt;&lt;/font&gt;&lt;/div&gt;" style="rounded=1;whiteSpace=wrap;html=1;fillColor=#d5e8d4;strokeColor=#82b366;" vertex="1" parent="1">
          <mxGeometry x="692.5" y="620" width="77.5" height="30" as="geometry" />
        </mxCell>
        <mxCell id="nrrABRd8VTDL2e9XV0RQ-77" value="&lt;div style=&quot;font-size: 11px;&quot;&gt;&lt;font style=&quot;font-size: 11px;&quot;&gt;59 мин&lt;/font&gt;&lt;/div&gt;&lt;div style=&quot;font-size: 11px;&quot;&gt;&lt;font style=&quot;font-size: 11px;&quot;&gt;2 пересадки&lt;br&gt;&lt;/font&gt;&lt;/div&gt;" style="rounded=1;whiteSpace=wrap;html=1;fillColor=#f5f5f5;strokeColor=#666666;fontColor=#333333;" vertex="1" parent="1">
          <mxGeometry x="768" y="620" width="90" height="30" as="geometry" />
        </mxCell>
        <mxCell id="nrrABRd8VTDL2e9XV0RQ-79" style="rounded=0;orthogonalLoop=1;jettySize=auto;html=1;exitX=1;exitY=0.25;exitDx=0;exitDy=0;entryX=0.053;entryY=0.975;entryDx=0;entryDy=0;entryPerimeter=0;elbow=vertical;" edge="1" parent="1" source="nrrABRd8VTDL2e9XV0RQ-77" target="nrrABRd8VTDL2e9XV0RQ-72">
          <mxGeometry relative="1" as="geometry" />
        </mxCell>
        <mxCell id="nrrABRd8VTDL2e9XV0RQ-83" value="" style="rounded=1;whiteSpace=wrap;html=1;" vertex="1" parent="1">
          <mxGeometry x="372" y="600" width="165" height="50" as="geometry" />
        </mxCell>
        <mxCell id="nrrABRd8VTDL2e9XV0RQ-80" value="Выберите маршрут" style="text;html=1;align=center;verticalAlign=middle;whiteSpace=wrap;rounded=0;" vertex="1" parent="1">
          <mxGeometry x="394.5" y="600" width="120" height="20" as="geometry" />
        </mxCell>
        <mxCell id="nrrABRd8VTDL2e9XV0RQ-81" value="&lt;div style=&quot;font-size: 11px;&quot;&gt;&lt;font style=&quot;font-size: 11px;&quot;&gt;1 час 15 мин&lt;/font&gt;&lt;/div&gt;&lt;div style=&quot;font-size: 11px;&quot;&gt;&lt;font style=&quot;font-size: 11px;&quot;&gt;9 км&lt;font style=&quot;font-size: 11px;&quot;&gt;&lt;br&gt;&lt;/font&gt;&lt;/font&gt;&lt;/div&gt;" style="rounded=1;whiteSpace=wrap;html=1;fillColor=#d5e8d4;strokeColor=#82b366;" vertex="1" parent="1">
          <mxGeometry x="372" y="620" width="77.5" height="30" as="geometry" />
        </mxCell>
        <mxCell id="nrrABRd8VTDL2e9XV0RQ-86" style="edgeStyle=elbowEdgeStyle;rounded=0;orthogonalLoop=1;jettySize=auto;html=1;exitX=1;exitY=0.5;exitDx=0;exitDy=0;endArrow=none;endFill=0;" edge="1" parent="1">
          <mxGeometry relative="1" as="geometry">
            <mxPoint x="1000" y="730" as="targetPoint" />
            <mxPoint x="530" y="580" as="sourcePoint" />
            <Array as="points">
              <mxPoint x="622.5" y="655" />
            </Array>
          </mxGeometry>
        </mxCell>
        <mxCell id="nrrABRd8VTDL2e9XV0RQ-82" value="&lt;div&gt;1 час 28 мин&lt;/div&gt;&lt;div&gt;11 км&lt;br&gt;&lt;/div&gt;" style="rounded=1;whiteSpace=wrap;html=1;fillColor=#f5f5f5;strokeColor=#666666;fontColor=#333333;" vertex="1" parent="1">
          <mxGeometry x="447.5" y="620" width="90" height="30" as="geometry" />
        </mxCell>
      </root>
    </mxGraphModel>
  </diagram>
</mxfile>
